<?xml version="1.0" standalone="no"?>
<!DOCTYPE svg PUBLIC "-//W3C//DTD SVG 20010904//EN"
 "http://www.w3.org/TR/2001/REC-SVG-20010904/DTD/svg10.dtd">
<svg version="1.0" xmlns="http://www.w3.org/2000/svg"
 width="512.000000pt" height="512.000000pt" viewBox="0 0 512.000000 512.000000"
 preserveAspectRatio="xMidYMid meet">
<metadata>
Created by potrace 1.14, written by Peter Selinger 2001-2017
</metadata>
<g transform="translate(0.000000,512.000000) scale(0.100000,-0.100000)"
fill="#000000" stroke="none">
<path d="M0 2560 l0 -2560 2560 0 2560 0 0 2560 0 2560 -2560 0 -2560 0 0
-2560z m2735 1603 c180 -55 332 -220 365 -393 54 -283 -104 -542 -379 -624
-68 -20 -198 -21 -270 -1 -162 43 -303 169 -362 324 -52 138 -45 279 22 418
111 232 380 351 624 276z m-1080 -1055 c102 -26 218 -104 281 -189 72 -98 94
-165 114 -342 23 -198 97 -330 237 -423 98 -65 172 -87 293 -88 124 -1 205 22
300 85 153 103 248 288 250 489 0 66 26 155 62 219 120 211 387 314 618 240
90 -29 189 -96 242 -164 25 -31 18 -27 -30 19 -75 73 -107 93 -116 70 -5 -14
-9 -14 -23 -3 -12 10 -14 10 -9 2 4 -8 2 -13 -6 -13 -7 -1 -2 -7 11 -14 15 -8
20 -16 12 -20 -6 -4 -11 -3 -11 2 0 14 -39 22 -47 10 -4 -7 -1 -8 7 -3 10 6
12 4 6 -10 -5 -15 -4 -16 9 -5 8 7 16 10 16 6 5 -23 3 -32 -6 -39 -6 -5 -3 -7
8 -3 9 3 17 1 17 -4 0 -6 -5 -10 -11 -10 -5 0 -7 -5 -3 -11 9 -15 34 30 27 48
-3 7 -1 13 4 13 12 0 14 -38 2 -45 -5 -4 -9 -11 -9 -17 0 -7 6 -6 15 2 10 9
15 9 15 1 0 -6 -5 -11 -11 -11 -8 0 -8 -4 0 -13 8 -10 7 -14 -4 -14 -7 0 -14
3 -13 6 2 18 -4 22 -17 11 -8 -7 -21 -10 -30 -7 -8 4 -17 1 -21 -5 -5 -7 -2
-8 6 -3 10 6 12 4 6 -10 -5 -15 -4 -16 9 -5 8 7 15 9 15 4 0 -5 5 -2 10 6 7
10 10 11 10 2 0 -7 -7 -15 -15 -18 -13 -5 -13 -8 0 -20 8 -8 12 -21 9 -29 -6
-14 12 -15 34 -2 7 5 12 4 12 -2 0 -6 -5 -11 -11 -11 -8 0 -7 -5 1 -16 8 -8 9
-14 4 -13 -21 4 -28 -2 -14 -12 13 -9 12 -10 -2 -5 -25 8 -54 -4 -36 -15 10
-6 9 -11 -7 -23 -11 -8 -17 -18 -12 -22 4 -4 7 -2 7 4 0 7 5 12 11 12 5 0 8
-4 5 -9 -4 -5 2 -7 11 -5 11 3 23 -3 31 -16 7 -11 9 -19 5 -18 -18 3 -41 -15
-36 -28 3 -8 10 -11 16 -7 6 4 7 1 2 -7 -6 -9 -4 -12 7 -8 8 4 15 0 15 -7 0
-10 -5 -11 -17 -5 -10 5 -21 6 -25 2 -5 -4 -5 -1 0 6 6 11 3 12 -13 3 -11 -6
-22 -18 -26 -28 -6 -17 -5 -17 8 0 15 19 31 24 20 5 -4 -7 -3 -8 5 -4 18 11
51 -3 44 -19 -3 -8 -10 -12 -17 -8 -16 10 -54 15 -39 5 7 -4 9 -13 4 -21 -7
-11 -11 -10 -20 5 -6 11 -11 14 -11 8 0 -6 9 -19 20 -29 19 -18 20 -17 20 3 0
12 4 22 9 22 5 0 7 -9 4 -20 -3 -12 -2 -20 3 -19 5 1 15 1 23 0 11 -1 11 -4 0
-17 -7 -9 -9 -18 -3 -22 5 -4 10 -15 10 -25 2 -14 -1 -15 -12 -6 -8 6 -11 16
-7 23 3 6 3 8 -2 4 -4 -4 -15 -2 -23 5 -13 9 -14 9 -8 0 4 -8 2 -13 -6 -13 -7
-1 -2 -7 11 -14 15 -8 20 -16 12 -20 -6 -4 -11 -3 -11 2 0 14 -39 22 -47 10
-4 -7 -1 -8 7 -3 10 6 12 4 6 -10 -5 -15 -4 -16 9 -5 8 7 16 10 16 6 5 -23 3
-32 -6 -39 -6 -5 -3 -7 8 -3 9 3 17 1 17 -4 0 -6 -5 -10 -11 -10 -5 0 -7 -5
-3 -11 9 -15 34 30 27 48 -3 7 -1 13 4 13 12 0 14 -38 2 -45 -5 -4 -9 -11 -9
-17 0 -7 6 -6 15 2 10 9 15 9 15 1 0 -6 -5 -11 -11 -11 -8 0 -8 -4 0 -13 8
-10 7 -14 -4 -14 -7 0 -14 3 -13 6 2 18 -4 22 -17 11 -8 -7 -21 -10 -30 -7 -8
4 -17 1 -21 -5 -5 -7 -2 -8 6 -3 10 6 12 4 6 -10 -5 -15 -4 -16 9 -5 8 7 15 9
15 4 0 -5 5 -2 10 6 7 10 10 11 10 2 0 -7 -7 -15 -15 -18 -13 -5 -13 -8 0 -20
8 -8 12 -21 9 -29 -6 -14 12 -15 34 -2 7 5 12 4 12 -2 0 -6 -5 -11 -11 -11 -8
0 -7 -5 1 -16 8 -8 9 -14 4 -13 -21 4 -28 -2 -14 -12 12 -8 11 -9 -5 -5 -29 8
-47 -6 -29 -22 9 -8 14 -9 14 -2 0 6 4 9 9 6 12 -8 78 42 137 101 l47 48 -38
-47 c-44 -56 -133 -118 -213 -149 -35 -13 -97 -25 -162 -30 -157 -13 -243 -43
-343 -118 -57 -42 -130 -135 -163 -206 -28 -60 -54 -178 -54 -243 0 -112 -53
-233 -144 -329 -107 -114 -222 -163 -381 -163 -148 0 -268 47 -369 145 -107
102 -143 188 -169 402 -12 96 -23 136 -50 195 -84 183 -278 308 -479 308 -223
0 -426 145 -499 357 -105 306 106 642 431 683 62 8 145 3 205 -12z m2271 -107
c0 -15 -3 -17 -13 -9 -7 6 -10 14 -7 19 9 15 20 10 20 -10z m-9 -148 c-4 -3
-1 -13 6 -22 11 -14 10 -15 -7 -1 -18 14 -19 13 -13 -2 9 -25 0 -22 -14 3 -8
15 -8 19 0 15 6 -4 11 -2 11 3 0 6 5 11 12 11 6 0 8 -3 5 -7z m197 -9 c3 -8 2
-12 -4 -9 -6 3 -10 10 -10 16 0 14 7 11 14 -7z m36 -89 c0 -5 -5 -3 -10 5 -5
8 -10 20 -10 25 0 6 5 3 10 -5 5 -8 10 -19 10 -25z m-236 -45 c4 0 4 6 0 13
-4 6 -3 8 1 4 5 -4 10 -14 11 -22 2 -11 -2 -12 -16 -5 -9 5 -19 7 -22 5 -2 -2
-4 5 -4 16 0 18 2 18 12 5 6 -9 14 -16 18 -16z m243 -2 c-3 -8 -6 -5 -6 6 -1
11 2 17 5 13 3 -3 4 -12 1 -19z m10 -65 c-3 -10 -5 -2 -5 17 0 19 2 27 5 18 2
-10 2 -26 0 -35z m0 -110 c-3 -10 -5 -2 -5 17 0 19 2 27 5 18 2 -10 2 -26 0
-35z m-10 -45 c-3 -8 -6 -5 -6 6 -1 11 2 17 5 13 3 -3 4 -12 1 -19z m-47 -128
c-11 -22 -23 -40 -25 -40 -3 0 4 18 15 40 11 22 23 40 25 40 3 0 -4 -18 -15
-40z m-193 -67 c-4 -3 -1 -13 6 -22 11 -14 10 -15 -7 -1 -18 14 -19 13 -13 -2
9 -25 0 -22 -14 3 -8 15 -8 19 0 15 6 -4 11 -2 11 3 0 6 5 11 12 11 6 0 8 -3
5 -7z"/>
<path d="M3870 3048 c-12 -8 -12 -9 2 -5 9 3 19 1 22 -6 3 -9 5 -9 5 0 1 18
-13 23 -29 11z"/>
<path d="M3825 2799 c-3 -4 2 -6 10 -5 21 3 28 13 10 13 -9 0 -18 -4 -20 -8z"/>
<path d="M3885 2780 c-4 -6 -10 -8 -15 -5 -5 3 -11 1 -15 -5 -4 -6 -11 -8 -16
-5 -5 3 -6 -1 -2 -10 4 -12 8 -13 13 -5 4 7 13 9 19 6 6 -4 11 -2 11 4 0 6 4
9 9 5 5 -3 12 -1 15 4 4 5 2 12 -3 15 -5 4 -12 2 -16 -4z"/>
<path d="M3891 2664 c0 -11 3 -14 6 -6 3 7 2 16 -1 19 -3 4 -6 -2 -5 -13z"/>
<path d="M3855 2660 c-4 -6 -11 -8 -16 -5 -5 3 -6 0 -4 -7 6 -15 45 -42 45
-32 0 4 -8 13 -17 21 -17 14 -17 14 0 9 11 -3 17 0 17 9 0 17 -16 20 -25 5z"/>
<path d="M3835 2599 c-4 -6 -5 -12 -2 -15 2 -3 7 2 10 11 7 17 1 20 -8 4z"/>
<path d="M3868 2487 c-10 -6 -8 -7 4 -4 9 3 18 1 21 -6 2 -7 6 -5 9 4 7 18
-14 21 -34 6z"/>
<path d="M3825 2239 c-3 -4 2 -6 10 -5 21 3 28 13 10 13 -9 0 -18 -4 -20 -8z"/>
<path d="M3885 2220 c-4 -6 -10 -8 -15 -5 -5 3 -11 1 -15 -5 -4 -6 -11 -8 -16
-5 -5 3 -6 -1 -2 -10 4 -12 8 -13 13 -5 4 7 13 9 19 6 6 -4 11 -2 11 4 0 6 4
9 9 5 5 -3 12 -1 15 4 4 5 2 12 -3 15 -5 4 -12 2 -16 -4z"/>
</g>
</svg>
